<?xml version="1.0" standalone="no"?>
<!DOCTYPE svg PUBLIC "-//W3C//DTD SVG 20010904//EN"
 "http://www.w3.org/TR/2001/REC-SVG-20010904/DTD/svg10.dtd">
<svg version="1.0" xmlns="http://www.w3.org/2000/svg"
 width="512.000000pt" height="512.000000pt" viewBox="0 0 512.000000 512.000000"
 preserveAspectRatio="xMidYMid meet">

<g transform="translate(0.000000,512.000000) scale(0.100000,-0.100000)"
fill="#000000" stroke="none">
<path d="M2523 5077 c-30 -17 -2462 -2330 -2490 -2369 -45 -60 -37 -72 174
-248 120 -100 162 -130 184 -130 23 0 47 17 109 76 l80 77 0 -265 c0 -264 0
-265 23 -286 33 -31 80 -29 106 4 20 26 21 38 21 358 l0 332 911 869 c501 479
915 870 919 870 4 0 418 -391 919 -870 l911 -869 0 -918 0 -918 -838 0 -839 0
-21 -23 c-21 -22 -22 -32 -24 -302 l-3 -280 -105 0 -105 0 -3 1067 -2 1067
-26 20 c-26 21 -34 21 -678 21 -702 -1 -675 1 -696 -54 -7 -18 -10 -375 -10
-1077 l0 -1049 -40 0 -39 0 -3 286 -3 286 -24 19 c-19 15 -40 19 -112 19 l-89
0 0 429 c0 418 0 429 -21 455 -27 34 -77 36 -107 3 -22 -23 -22 -26 -22 -455
l0 -432 -265 0 -266 0 -24 -25 -25 -24 0 -329 c0 -310 1 -331 19 -353 l19 -24
2522 0 2522 0 19 24 c18 22 19 43 19 353 l0 329 -25 24 -24 25 -266 0 -265 0
0 846 0 847 80 -77 c62 -59 86 -76 109 -76 22 0 64 30 184 130 163 136 197
171 197 200 0 31 -42 75 -297 317 l-252 238 -1 377 0 377 -26 20 c-33 26 -65
27 -95 2 l-24 -19 -5 -304 -5 -305 -397 380 -398 379 0 189 0 189 400 0 400 0
0 -110 c0 -123 10 -154 52 -169 34 -12 81 6 92 34 3 9 6 92 6 184 0 162 -1
168 -23 189 -23 22 -24 22 -528 22 l-506 0 -21 -23 c-20 -21 -22 -35 -24 -190
l-3 -167 -410 391 c-225 215 -423 399 -440 410 -35 22 -51 23 -82 6z m1178
-1252 c618 -588 1145 -1090 1172 -1115 l49 -45 -78 -65 c-44 -36 -86 -71 -96
-78 -14 -11 -147 112 -1079 1003 -585 558 -1074 1018 -1086 1021 -13 4 -33 4
-45 0 -13 -3 -502 -463 -1087 -1021 -932 -891 -1065 -1014 -1079 -1003 -10 7
-52 42 -95 78 l-78 64 108 102 c59 56 587 559 1173 1118 636 607 1072 1015
1081 1013 9 -1 522 -483 1140 -1072z m-1401 -2630 l0 -1015 -550 0 -550 0 0
1015 0 1015 550 0 550 0 0 -1015z m-1492 -782 l-3 -228 -327 -3 -328 -2 0 230
0 230 330 0 330 0 -2 -227z m4162 -3 l0 -230 -1075 0 -1075 0 0 230 0 230
1075 0 1075 0 0 -230z"/>
<path d="M1914 1268 c-22 -10 -44 -47 -44 -72 0 -7 9 -25 21 -40 20 -26 22
-26 145 -26 111 0 126 2 144 20 33 33 30 75 -6 108 -23 20 -35 22 -132 21 -59
0 -117 -5 -128 -11z"/>
<path d="M2453 3665 c-256 -69 -387 -350 -275 -589 124 -265 473 -326 680
-119 130 130 161 321 78 488 -89 180 -291 271 -483 220z m220 -163 c93 -41
148 -125 155 -234 10 -157 -109 -282 -268 -282 -220 0 -345 239 -223 426 68
103 216 143 336 90z"/>
<path d="M2696 2339 l-26 -20 0 -664 0 -664 27 -20 c26 -21 28 -21 770 -19
l745 3 19 24 c18 22 19 48 19 678 l0 654 -25 24 -24 25 -739 0 c-733 0 -740 0
-766 -21z m1404 -244 l0 -115 -640 0 -640 0 0 115 0 115 640 0 640 0 0 -115z
m0 -630 l0 -365 -640 0 -640 0 0 365 0 365 640 0 640 0 0 -365z"/>
</g>
</svg>
