<?xml version="1.0" standalone="no"?>
<!DOCTYPE svg PUBLIC "-//W3C//DTD SVG 20010904//EN"
 "http://www.w3.org/TR/2001/REC-SVG-20010904/DTD/svg10.dtd">
<svg version="1.0" xmlns="http://www.w3.org/2000/svg"
 width="512.000000pt" height="512.000000pt" viewBox="0 0 512.000000 512.000000"
 preserveAspectRatio="xMidYMid meet">

<g transform="translate(0.000000,512.000000) scale(0.100000,-0.100000)"
fill="#000000" stroke="none">
<path d="M2225 5029 c-177 -26 -410 -126 -570 -246 -51 -38 -222 -198 -395
-369 l-305 -302 -65 34 c-119 62 -225 77 -335 49 -100 -26 -145 -59 -314 -229
-143 -144 -161 -166 -161 -196 0 -29 19 -52 170 -205 l170 -171 -73 -47 c-40
-25 -103 -74 -140 -107 -112 -103 -132 -70 296 -497 426 -426 394 -407 494
-299 33 35 82 98 108 140 l49 77 160 -160 c89 -87 171 -164 183 -170 48 -24
63 -15 229 150 128 128 169 175 193 223 65 134 62 272 -10 415 l-38 76 298
300 c318 321 350 356 430 480 141 216 210 454 198 689 -5 113 -28 240 -53 288
-33 65 -315 106 -519 77z m347 -169 c31 -9 39 -17 48 -48 21 -71 24 -240 6
-340 -17 -96 -50 -210 -67 -227 -11 -11 -561 534 -556 550 5 13 127 53 217 70
84 16 290 13 352 -5z m-413 -464 c198 -198 312 -319 309 -328 -22 -56 -199
-245 -677 -723 -412 -411 -552 -545 -556 -533 -4 9 3 54 14 100 42 173 38 252
-15 277 -38 17 -63 13 -89 -14 -18 -17 -25 -35 -25 -62 0 -67 -37 -218 -73
-301 -34 -79 -117 -214 -139 -228 -10 -6 -568 542 -568 558 0 14 117 90 196
128 93 45 210 78 309 87 78 7 115 32 115 78 0 89 -83 104 -288 54 -46 -11 -91
-18 -100 -14 -12 4 122 144 533 556 494 494 693 679 730 679 6 0 151 -141 324
-314z m-1370 -377 l52 -24 -198 -198 -198 -197 -85 85 -85 85 115 116 c147
148 180 166 286 160 37 -2 82 -13 113 -27z m991 -994 c30 -70 35 -133 15 -201
-15 -54 -28 -70 -141 -184 l-123 -125 -86 85 -85 85 192 192 c106 106 196 193
201 193 4 0 16 -20 27 -45z"/>
<path d="M1562 4195 c-195 -55 -292 -269 -203 -449 68 -138 216 -209 359 -172
105 27 183 91 226 185 32 72 29 189 -7 262 -32 66 -100 132 -162 160 -60 26
-148 32 -213 14z m174 -176 c36 -22 74 -90 74 -132 0 -38 -18 -78 -48 -111
-113 -119 -315 -6 -273 152 12 43 65 99 107 112 39 12 101 3 140 -21z"/>
<path d="M2985 4696 c-33 -33 -33 -79 0 -111 l24 -25 472 0 c341 0 483 -3 513
-12 55 -16 138 -99 154 -154 9 -31 12 -223 12 -753 l0 -712 25 -24 c32 -33 78
-33 111 0 l25 25 -3 742 -3 743 -32 67 c-44 93 -100 151 -191 196 l-76 37
-503 3 -503 3 -25 -25z"/>
<path d="M2185 3095 c-16 -15 -25 -36 -25 -55 0 -19 9 -40 25 -55 l24 -25 831
0 831 0 24 25 c16 15 25 36 25 55 0 19 -9 40 -25 55 l-24 25 -831 0 -831 0
-24 -25z"/>
<path d="M4515 2861 c-16 -10 -388 -378 -827 -818 l-796 -798 -105 -280 c-58
-154 -115 -304 -126 -333 -12 -29 -21 -64 -21 -78 0 -31 41 -74 72 -74 13 0
173 55 355 122 l333 123 820 820 c768 768 820 822 820 855 0 31 -18 52 -207
243 -195 196 -243 237 -275 237 -7 0 -26 -9 -43 -19z m190 -321 l140 -140 -63
-62 -62 -63 -142 142 -143 143 60 60 c33 33 62 60 65 60 3 0 68 -63 145 -140z
m-240 -240 l140 -140 -623 -623 -622 -622 -142 143 -143 142 620 620 c341 341
622 620 625 620 3 0 68 -63 145 -140z m-1263 -1472 c-9 -9 -334 -129 -338
-125 -2 2 24 75 57 163 32 87 62 165 65 173 3 10 40 -20 114 -94 60 -60 106
-113 102 -117z"/>
<path d="M1945 2455 c-16 -15 -25 -36 -25 -55 0 -19 9 -40 25 -55 l24 -25 951
0 951 0 24 25 c33 32 33 78 0 110 l-24 25 -951 0 -951 0 -24 -25z"/>
<path d="M984 2295 l-24 -25 2 -942 3 -943 32 -67 c44 -93 100 -151 191 -196
l76 -37 1376 0 1376 0 76 37 c91 45 147 103 191 196 l32 67 3 462 3 463 -25
25 c-33 33 -79 33 -111 0 l-25 -24 0 -432 c0 -310 -3 -443 -12 -473 -16 -55
-99 -138 -154 -154 -60 -17 -2648 -17 -2708 0 -55 16 -138 99 -154 154 -9 31
-12 266 -12 953 l0 912 -25 24 c-32 33 -78 33 -111 0z"/>
<path d="M1385 1815 c-16 -15 -25 -36 -25 -55 0 -19 9 -40 25 -55 l24 -25 831
0 831 0 24 25 c16 15 25 36 25 55 0 19 -9 40 -25 55 l-24 25 -831 0 -831 0
-24 -25z"/>
<path d="M1385 1175 c-16 -15 -25 -36 -25 -55 0 -19 9 -40 25 -55 l24 -25 631
0 631 0 24 25 c16 15 25 36 25 55 0 19 -9 40 -25 55 l-24 25 -631 0 -631 0
-24 -25z"/>
</g>
</svg>
