<?xml version="1.0" standalone="no"?>
<!DOCTYPE svg PUBLIC "-//W3C//DTD SVG 20010904//EN"
 "http://www.w3.org/TR/2001/REC-SVG-20010904/DTD/svg10.dtd">
<svg version="1.0" xmlns="http://www.w3.org/2000/svg"
 width="512.000000pt" height="512.000000pt" viewBox="0 0 512.000000 512.000000"
 preserveAspectRatio="xMidYMid meet">

<g transform="translate(0.000000,512.000000) scale(0.100000,-0.100000)"
fill="#000000" stroke="none">
<path d="M3227 5029 c-359 -41 -695 -202 -962 -461 l-61 -58 -94 24 c-151 38
-272 49 -463 43 -264 -9 -454 -58 -688 -179 -287 -147 -561 -423 -703 -707
-193 -384 -227 -847 -93 -1246 91 -268 222 -472 431 -673 208 -198 416 -310
754 -408 7 -2 14 -9 16 -16 98 -338 213 -551 410 -756 249 -258 522 -409 876
-483 142 -30 435 -33 584 -5 455 83 860 358 1104 747 108 172 197 411 226 611
31 205 16 482 -34 666 l-20 73 80 87 c206 222 357 509 414 784 90 436 6 869
-241 1243 -333 502 -938 784 -1536 714z m475 -179 c555 -117 995 -537 1133
-1083 110 -436 13 -898 -265 -1254 -37 -49 -81 -100 -97 -116 l-29 -27 -25 52
c-110 238 -326 485 -564 645 -138 93 -330 179 -486 218 l-65 17 -27 95 c-73
259 -204 486 -397 687 -130 135 -254 228 -423 317 l-88 46 58 53 c212 194 505
330 795 369 113 15 366 5 480 -19z m-1697 -455 c44 -9 82 -19 84 -21 2 -2 -17
-35 -42 -73 -252 -379 -332 -886 -209 -1321 l19 -65 -94 -99 c-185 -195 -320
-441 -387 -707 -36 -141 -48 -245 -47 -418 l0 -153 -30 6 c-62 12 -237 88
-322 138 -136 82 -204 135 -307 238 -211 213 -351 478 -406 775 -26 137 -26
382 0 520 62 332 240 643 488 852 230 193 433 285 768 347 64 11 408 -2 485
-19z m366 -131 c299 -153 529 -390 670 -689 28 -59 89 -223 89 -239 0 0 -82
-1 -183 -1 -206 -1 -292 -14 -477 -71 -142 -45 -273 -105 -386 -179 -65 -42
-89 -53 -95 -43 -24 38 -44 211 -44 373 1 246 43 430 145 638 43 87 156 267
167 267 3 0 54 -25 114 -56z m793 -1104 c19 -19 14 -357 -8 -470 -24 -125 -67
-253 -122 -369 -46 -98 -148 -259 -168 -267 -28 -11 -222 94 -341 185 -143
108 -289 271 -380 426 -45 76 -95 179 -95 196 0 13 121 95 211 143 157 83 300
131 484 161 106 17 400 14 419 -5z m251 -55 c173 -57 338 -149 485 -273 156
-132 268 -273 365 -462 65 -128 70 -106 -48 -186 -148 -101 -349 -182 -542
-220 -126 -25 -395 -26 -525 -1 -53 10 -101 22 -108 26 -10 6 1 30 43 95 73
111 134 242 178 382 55 175 71 283 72 487 0 97 1 177 1 177 1 0 36 -11 79 -25z
m-1459 -427 c152 -304 415 -568 718 -720 l81 -41 -50 -44 c-226 -200 -480
-323 -765 -369 -97 -16 -337 -21 -402 -9 -33 6 -37 11 -43 48 -12 71 -7 298 9
397 44 270 155 509 338 728 38 45 71 82 73 82 3 0 21 -33 41 -72z m2440 -680
c27 -131 27 -456 0 -578 -70 -322 -244 -619 -481 -819 -210 -178 -439 -288
-700 -337 -134 -25 -392 -26 -520 -1 -210 41 -430 134 -597 253 -97 70 -255
224 -318 312 -106 147 -215 363 -236 471 l-6 30 153 0 c85 -1 192 4 238 11
347 48 689 217 925 458 l59 60 50 -15 c107 -31 248 -53 382 -59 338 -15 667
75 950 260 39 25 73 46 76 46 4 0 15 -42 25 -92z"/>
<path d="M3813 4479 c-66 -12 -114 -39 -165 -91 -86 -88 -107 -220 -53 -333
16 -33 31 -63 32 -66 2 -4 -16 -18 -40 -32 -56 -33 -151 -135 -181 -195 -32
-63 -56 -147 -56 -194 0 -42 24 -74 62 -83 13 -3 227 -4 475 -3 l452 3 23 23
c18 18 23 32 21 70 -3 56 -33 148 -69 209 -32 56 -120 144 -172 173 l-39 22
31 61 c27 53 31 70 31 141 -1 68 -5 89 -27 132 -63 121 -197 188 -325 163z
m141 -182 c29 -20 56 -76 56 -119 0 -68 -70 -138 -138 -138 -131 0 -196 154
-103 244 48 46 126 51 185 13z m47 -447 c31 -11 75 -37 99 -57 44 -38 100
-116 100 -140 0 -10 -66 -13 -335 -13 -184 0 -335 2 -335 5 0 20 49 94 85 130
103 99 247 128 386 75z"/>
<path d="M872 3980 c-179 -47 -343 -180 -421 -342 -99 -204 -97 -397 6 -596
31 -59 66 -128 79 -154 43 -85 64 -185 73 -334 8 -152 23 -195 77 -231 18 -11
24 -24 24 -49 0 -48 22 -95 57 -125 22 -18 33 -38 38 -70 10 -60 39 -110 82
-139 34 -23 45 -25 153 -25 109 0 119 2 157 27 44 29 72 79 81 141 4 29 14 48
34 65 38 33 58 73 58 120 0 31 6 42 30 60 52 39 63 74 71 222 11 184 33 261
123 433 85 161 106 231 106 358 0 107 -27 215 -77 312 -51 98 -172 219 -270
270 -146 76 -326 97 -481 57z m299 -156 c222 -65 369 -258 369 -484 0 -100
-19 -159 -91 -288 -65 -117 -116 -260 -126 -353 l-6 -59 -48 0 -49 0 0 240 0
240 48 0 c112 0 211 88 220 194 11 140 -93 245 -233 234 -107 -9 -195 -108
-195 -220 0 -40 -3 -48 -19 -48 -15 0 -19 10 -24 65 -3 48 -12 76 -31 105 -80
121 -250 134 -341 27 -62 -72 -71 -152 -28 -238 36 -70 96 -108 182 -116 l61
-6 0 -239 0 -239 -47 3 -47 3 -12 71 c-20 120 -43 183 -127 345 -79 153 -81
158 -85 241 -8 160 41 290 151 395 101 97 207 142 343 142 46 1 104 -6 135
-15z m-329 -451 c11 -10 18 -30 18 -55 0 -36 -1 -38 -33 -38 -65 0 -98 50 -60
92 20 22 51 23 75 1z m472 1 c39 -38 6 -94 -56 -94 -37 0 -38 1 -38 37 0 62
56 96 94 57z m-254 -494 c0 -233 -1 -240 -20 -240 -19 0 -20 7 -20 240 0 233
1 240 20 240 19 0 20 -7 20 -240z m248 -412 c-4 -10 -66 -13 -268 -13 -202 0
-264 3 -267 13 -4 9 54 12 267 12 213 0 271 -3 268 -12z m-98 -193 c0 -13 -26
-15 -170 -15 -144 0 -170 2 -170 15 0 13 26 15 170 15 144 0 170 -2 170 -15z
m-92 -187 c-3 -9 -30 -14 -75 -16 -56 -2 -72 0 -76 13 -5 13 6 15 74 15 60 0
80 -3 77 -12z"/>
<path d="M2780 2815 c-94 -85 -174 -155 -177 -155 -4 0 -34 27 -69 60 -72 69
-107 78 -149 35 -48 -47 -31 -87 87 -202 87 -85 121 -103 157 -83 23 12 344
299 399 356 40 42 43 84 7 119 -48 49 -67 40 -255 -130z"/>
<path d="M2993 1675 c-12 -8 -27 -31 -33 -51 -9 -28 -21 -40 -54 -54 -36 -15
-44 -16 -68 -4 -58 30 -86 20 -165 -59 -78 -79 -86 -98 -60 -160 12 -28 12
-37 -4 -73 -13 -33 -25 -45 -53 -54 -56 -18 -66 -41 -66 -151 0 -109 14 -139
73 -158 46 -16 73 -80 52 -122 -30 -57 -21 -79 64 -162 43 -42 86 -77 95 -77
9 0 33 7 53 15 33 14 40 14 79 -1 28 -11 44 -24 48 -38 3 -13 15 -35 27 -49
20 -26 24 -27 125 -27 58 0 114 5 125 11 11 5 27 28 35 49 13 31 24 42 59 55
39 15 45 15 73 1 17 -9 41 -16 53 -16 26 0 167 134 175 167 4 13 -1 41 -10 63
-14 36 -14 43 0 79 12 30 25 43 55 55 56 23 73 65 67 173 -5 92 -17 114 -74
135 -24 8 -36 22 -48 52 -15 37 -15 44 1 84 16 42 16 46 -2 79 -11 19 -45 59
-78 89 -62 58 -97 67 -146 40 -21 -12 -31 -11 -68 2 -33 13 -45 23 -54 49 -19
59 -49 73 -158 73 -70 0 -103 -4 -118 -15z m153 -181 c9 -20 27 -39 38 -44 12
-4 55 -22 97 -39 73 -31 78 -32 112 -17 49 20 64 3 46 -49 -10 -27 -11 -42 -2
-63 6 -15 24 -58 40 -95 23 -57 34 -72 65 -88 47 -24 48 -44 6 -62 -38 -16
-53 -32 -63 -67 -4 -14 -19 -51 -33 -83 -22 -51 -24 -62 -14 -95 16 -50 0 -67
-46 -50 -26 10 -38 10 -64 -1 -18 -7 -60 -23 -92 -36 -59 -22 -96 -54 -96 -81
0 -8 -10 -14 -24 -14 -17 0 -27 9 -36 31 -9 20 -26 36 -49 46 -20 8 -60 26
-89 39 -59 27 -80 29 -116 13 -19 -9 -29 -9 -40 0 -12 10 -12 17 1 51 14 36
14 41 -6 82 -11 23 -29 66 -38 93 -15 40 -26 54 -56 68 -46 23 -47 47 -4 67
34 16 40 25 87 138 28 66 30 76 19 107 -18 48 -3 63 47 47 33 -10 45 -8 108
19 111 46 120 52 136 86 20 43 45 42 66 -3z"/>
<path d="M2985 1375 c-80 -33 -154 -109 -184 -190 -19 -49 -22 -74 -19 -136 7
-129 70 -224 186 -281 59 -29 76 -33 147 -33 67 0 89 5 137 28 72 35 130 93
165 165 23 48 28 70 28 137 0 71 -4 88 -33 147 -80 162 -260 231 -427 163z
m204 -149 c143 -74 125 -281 -28 -327 -69 -20 -147 9 -194 73 -32 43 -34 132
-5 183 43 74 154 108 227 71z"/>
</g>
</svg>
